<svg width="48" height="44" viewBox="0 0 48 44" fill="none" xmlns="http://www.w3.org/2000/svg">
<path d="M9.95117 27.7333C9.95117 27.8497 9.99741 27.9614 10.0797 28.0437C10.162 28.126 10.2737 28.1722 10.3901 28.1722H32.9445C33.0609 28.1722 33.1725 28.126 33.2549 28.0437C33.3372 27.9614 33.3834 27.8497 33.3834 27.7333C33.3834 27.6169 33.3372 27.5053 33.2549 27.423C33.1725 27.3407 33.0609 27.2944 32.9445 27.2944H10.3901C10.2737 27.2944 10.162 27.3407 10.0797 27.423C9.99741 27.5053 9.95117 27.6169 9.95117 27.7333Z" fill="#FF842F"/>
<path d="M32.9439 30.6156C33.0603 30.6156 33.172 30.5694 33.2543 30.4871C33.3366 30.4047 33.3828 30.2931 33.3828 30.1767C33.3828 30.0603 33.3366 29.9487 33.2543 29.8663C33.172 29.784 33.0603 29.7378 32.9439 29.7378H29.1196C29.0032 29.7378 28.8915 29.784 28.8092 29.8663C28.7269 29.9487 28.6807 30.0603 28.6807 30.1767C28.6807 30.2931 28.7269 30.4047 28.8092 30.4871C28.8915 30.5694 29.0032 30.6156 29.1196 30.6156H32.9439Z" fill="#FF842F"/>
<path d="M27.3881 30.1767C27.3881 30.0603 27.3418 29.9487 27.2595 29.8663C27.1772 29.784 27.0656 29.7378 26.9491 29.7378H10.3901C10.2737 29.7378 10.162 29.784 10.0797 29.8663C9.99741 29.9487 9.95117 30.0603 9.95117 30.1767C9.95117 30.2931 9.99741 30.4047 10.0797 30.4871C10.162 30.5694 10.2737 30.6156 10.3901 30.6156H26.9491C27.0656 30.6156 27.1772 30.5694 27.2595 30.4871C27.3418 30.4047 27.3881 30.2931 27.3881 30.1767Z" fill="#FF842F"/>
<path d="M46.5118 10.4354C46.8938 10.008 47.3268 9.52365 47.3268 8.88967C47.3268 8.25569 46.8938 7.77144 46.5118 7.34406C46.2916 7.09765 46.0639 6.84295 45.9962 6.63455C45.9226 6.40776 45.9569 6.05524 45.99 5.71435C46.0444 5.15466 46.1061 4.5203 45.7472 4.02711C45.3849 3.52934 44.7591 3.39227 44.207 3.27139C43.8753 3.19872 43.5322 3.12357 43.3442 2.9867C43.1607 2.85315 42.9857 2.55313 42.8166 2.26299C42.5299 1.77122 42.205 1.21391 41.6119 1.02137C41.041 0.83605 40.4622 1.08823 39.9516 1.31092C39.6327 1.44999 39.3029 1.59377 39.0555 1.59377C38.8081 1.59377 38.4784 1.44995 38.1594 1.31092C37.649 1.08832 37.0703 0.835924 36.4991 1.02137C35.906 1.21395 35.5811 1.77123 35.2945 2.2629C35.1253 2.55303 34.9504 2.85307 34.7669 2.98661C34.5788 3.12348 34.2359 3.19863 33.9042 3.27132C33.352 3.39218 32.7262 3.52925 32.3639 4.02712C32.0049 4.52031 32.0666 5.15467 32.121 5.71426C32.1542 6.05515 32.1885 6.40767 32.1148 6.63446C32.0471 6.84287 31.8194 7.09766 31.5992 7.34397C31.2172 7.77135 30.7842 8.25579 30.7842 8.88968C30.7851 9.05951 30.816 9.22786 30.8757 9.38687H1.05728C0.776939 9.38709 0.508144 9.49856 0.309913 9.69679C0.111682 9.89502 0.000219566 10.1638 0 10.4442V42.3615C0.000216987 42.6419 0.111678 42.9107 0.30991 43.1089C0.508141 43.3071 0.776939 43.4186 1.05728 43.4188H41.7499C42.0302 43.4186 42.299 43.3071 42.4973 43.1089C42.6955 42.9107 42.807 42.6419 42.8072 42.3615V21.8353H44.9529C45.1215 21.8355 45.2855 21.7808 45.4202 21.6795C45.5549 21.5782 45.653 21.4358 45.6996 21.2739C45.7462 21.1119 45.7388 20.9392 45.6785 20.7818C45.6182 20.6244 45.5084 20.4909 45.3655 20.4015C43.686 19.3639 42.9484 17.2492 42.6326 15.8245C42.6968 15.7215 42.7576 15.6176 42.8166 15.5164C42.9857 15.2263 43.1606 14.9263 43.3442 14.7927C43.5322 14.6559 43.8752 14.5807 44.2069 14.508C44.7591 14.3872 45.3849 14.2501 45.7471 13.7523C46.1061 13.2591 46.0444 12.6248 45.9901 12.0652C45.9569 11.7243 45.9226 11.3717 45.9962 11.1449C46.0639 10.9365 46.2915 10.6818 46.5118 10.4354ZM32.7298 20.4015C32.5863 20.4889 32.4755 20.6213 32.4149 20.7781C32.3542 20.9349 32.347 21.1073 32.3943 21.2686C32.4394 21.4322 32.5371 21.5763 32.6723 21.6788C32.8075 21.7812 32.9728 21.8362 33.1424 21.8353H36.6722C36.7349 21.8353 36.7968 21.8219 36.8538 21.7959C36.9108 21.77 36.9617 21.7322 37.0029 21.6851C37.056 21.6233 37.8737 20.6656 38.5683 18.7688V36.2402C37.8267 36.347 37.1396 36.691 36.6097 37.2207C36.0798 37.7504 35.7356 38.4374 35.6286 39.179H7.17858C7.07161 38.4375 6.72757 37.7506 6.19787 37.2209C5.66818 36.6912 4.98128 36.3472 4.23985 36.2402V16.5654C4.98128 16.4585 5.66817 16.1144 6.19787 15.5847C6.72757 15.055 7.07161 14.3681 7.17858 13.6267H32.2841C32.3083 13.67 32.3349 13.7119 32.3638 13.7522C32.7262 14.2501 33.352 14.3872 33.9041 14.508C34.2358 14.5807 34.5788 14.6559 34.7669 14.7927C34.9504 14.9263 35.1253 15.2263 35.2944 15.5164C35.3503 15.6122 35.4076 15.7105 35.4681 15.8081C35.1551 17.2322 34.4194 19.357 32.7298 20.4015ZM36.0451 17.057C36.0936 16.9026 36.1369 16.7516 36.177 16.6038C36.2772 16.669 36.3855 16.7209 36.4991 16.7581C37.0702 16.9436 37.6489 16.6911 38.1594 16.4685C38.2138 16.4448 38.2684 16.4213 38.3231 16.3979C37.7901 18.9809 36.7962 20.4979 36.4576 20.9574H33.477C34.6103 20.145 35.494 18.8039 36.0451 17.057V17.057ZM41.8318 42.3615C41.8318 42.3723 41.8297 42.383 41.8256 42.3929C41.8215 42.4029 41.8155 42.4119 41.8079 42.4195C41.8003 42.4271 41.7912 42.4332 41.7813 42.4373C41.7713 42.4414 41.7607 42.4435 41.7499 42.4435H1.05728C1.03559 42.4433 1.01482 42.4347 0.99948 42.4193C0.984142 42.404 0.975471 42.3832 0.975351 42.3615V10.4441C0.975474 10.4225 0.984145 10.4017 0.999483 10.3863C1.01482 10.371 1.03559 10.3623 1.05728 10.3622H31.534C31.5558 10.3868 31.5776 10.4112 31.5993 10.4354C31.8194 10.6817 32.0471 10.9365 32.1148 11.1449C32.1884 11.3717 32.1542 11.7242 32.121 12.0651C32.1026 12.2547 32.0837 12.453 32.0802 12.6514H6.72504C6.59572 12.6514 6.4717 12.7028 6.38026 12.7943C6.28881 12.8857 6.23742 13.0097 6.23737 13.139C6.23664 13.7979 5.97457 14.4296 5.50866 14.8955C5.04276 15.3614 4.41106 15.6235 3.75217 15.6242C3.62285 15.6243 3.49883 15.6757 3.40739 15.7671C3.31594 15.8586 3.26455 15.9826 3.2645 16.1119V36.6938C3.26455 36.8231 3.31594 36.9471 3.40739 37.0385C3.49883 37.13 3.62285 37.1814 3.75217 37.1814C4.41106 37.1822 5.04276 37.4442 5.50866 37.9101C5.97457 38.376 6.23664 39.0077 6.23737 39.6666C6.23742 39.796 6.28881 39.92 6.38026 40.0114C6.4717 40.1029 6.59572 40.1543 6.72504 40.1543H36.0821C36.2115 40.1543 36.3355 40.1029 36.4269 40.0114C36.5184 39.92 36.5698 39.796 36.5698 39.6666C36.5706 39.0076 36.8328 38.3758 37.2989 37.9099C37.765 37.4439 38.3969 37.182 39.056 37.1814C39.1853 37.1814 39.3093 37.13 39.4008 37.0385C39.4922 36.9471 39.5436 36.8231 39.5436 36.6938V18.8113C40.2346 20.6799 41.0399 21.6238 41.0935 21.6851C41.1346 21.7323 41.1854 21.7702 41.2425 21.7961C41.2995 21.822 41.3615 21.8354 41.4241 21.8353H41.8318V42.3615ZM44.6194 20.9575H41.6377C41.2981 20.4965 40.3027 18.9774 39.771 16.3907C39.8312 16.4163 39.8915 16.4424 39.9516 16.4686C40.3379 16.637 40.763 16.8224 41.1945 16.8224C41.3362 16.8231 41.477 16.8014 41.6119 16.7581C41.7207 16.7226 41.8247 16.6736 41.9214 16.6123C41.9611 16.7573 42.0038 16.9054 42.0513 17.0571C42.6014 18.8039 43.485 20.145 44.6194 20.9574V20.9575ZM45.7846 9.7854C45.4971 10.1071 45.1997 10.4398 45.0686 10.8437C44.9321 11.2638 44.9764 11.7191 45.0192 12.1596C45.0587 12.5652 45.0994 12.9847 44.9585 13.1784C44.8143 13.3766 44.3994 13.4674 43.9983 13.5553C43.5683 13.6495 43.1236 13.7468 42.7702 14.0041C42.4211 14.2581 42.1938 14.6481 41.974 15.0253C41.7654 15.3829 41.5498 15.7528 41.3107 15.8304C41.091 15.9017 40.7102 15.7354 40.3415 15.5746C39.9309 15.3955 39.5063 15.2103 39.0555 15.2103C38.6047 15.2103 38.1802 15.3955 37.7696 15.5746C37.4009 15.7354 37.0196 15.9017 36.8003 15.8304C36.5612 15.7528 36.3456 15.3829 36.137 15.0253C35.9172 14.6482 35.6899 14.2581 35.3408 14.0041C34.9873 13.7469 34.5428 13.6495 34.1128 13.5554C33.7117 13.4674 33.2968 13.3766 33.1525 13.1783C33.0116 12.9846 33.0524 12.5652 33.0918 12.1595C33.1347 11.7191 33.1789 11.2638 33.0425 10.8437C32.9114 10.4398 32.614 10.1071 32.3265 9.78543C32.0478 9.47358 31.7597 9.15126 31.7597 8.88971C31.7597 8.62816 32.0478 8.30582 32.3265 7.99398C32.614 7.67232 32.9114 7.33962 33.0425 6.93567C33.1789 6.51562 33.1347 6.06024 33.0919 5.61992C33.0524 5.21425 33.0116 4.79478 33.1526 4.60113C33.2968 4.40282 33.7117 4.31196 34.1129 4.22404C34.5428 4.12994 34.9874 4.0325 35.3409 3.77532C35.69 3.5213 35.9173 3.13134 36.1371 2.75425C36.3456 2.39659 36.5612 2.02674 36.8004 1.94911C36.8392 1.9372 36.8796 1.93148 36.9202 1.93216C37.144 1.93216 37.4613 2.07046 37.7696 2.20496C38.1802 2.38402 38.6048 2.56918 39.0556 2.56918C39.5063 2.56918 39.931 2.38402 40.3416 2.20496C40.7103 2.04417 41.0917 1.87777 41.3108 1.94911C41.55 2.02674 41.7656 2.39659 41.9741 2.75425C42.194 3.13134 42.4213 3.52139 42.7704 3.77545C43.1238 4.03271 43.5685 4.13006 43.9984 4.22426C44.3996 4.31204 44.8144 4.40295 44.9587 4.60116C45.0996 4.79481 45.0588 5.21428 45.0194 5.61995C44.9765 6.06038 44.9323 6.51576 45.0687 6.93582C45.1998 7.33977 45.4972 7.67247 45.7847 7.99413C46.0634 8.30587 46.3515 8.62829 46.3515 8.88976C46.3515 9.15122 46.0633 9.47364 45.7846 9.78539V9.7854Z" fill="#FF842F"/>
<path d="M39.1468 3.97155C38.174 3.95353 37.2178 4.22437 36.399 4.74981C35.5802 5.27526 34.9356 6.03171 34.5468 6.9235C34.1579 7.8153 34.0422 8.80238 34.2143 9.75992C34.3864 10.7175 34.8387 11.6025 35.5138 12.303C35.9734 12.7787 36.524 13.1572 37.1329 13.4159C37.7417 13.6745 38.3964 13.8081 39.0579 13.8086C39.0968 13.8086 39.1358 13.8082 39.1748 13.8073C39.3041 13.8042 39.4269 13.7499 39.5162 13.6562C39.6054 13.5626 39.6538 13.4374 39.6507 13.3081C39.6476 13.1787 39.5933 13.056 39.4997 12.9667C39.406 12.8775 39.2808 12.8291 39.1515 12.8321C38.3574 12.8514 37.5759 12.6305 36.9095 12.1981C36.2431 11.7658 35.7228 11.1424 35.4167 10.4094C35.1106 9.67635 35.033 8.868 35.194 8.09015C35.3551 7.3123 35.7473 6.60122 36.3193 6.05002C36.978 5.41552 37.8367 5.02963 38.7485 4.95838C39.6603 4.88713 40.5685 5.13494 41.3177 5.65942C42.067 6.1839 42.6107 6.95244 42.8558 7.83355C43.1009 8.71467 43.0323 9.65358 42.6615 10.4896C42.6091 10.6079 42.6058 10.7421 42.6524 10.8628C42.6989 10.9835 42.7915 11.0807 42.9097 11.1331C43.028 11.1856 43.1622 11.1889 43.2829 11.1423C43.4036 11.0958 43.5008 11.0032 43.5532 10.8849C43.8822 10.1429 44.0225 9.33112 43.9616 8.52178C43.9007 7.71245 43.6405 6.93074 43.2043 6.24632C42.7681 5.56191 42.1693 4.99604 41.4613 4.59914C40.7534 4.20224 39.9582 3.98664 39.1468 3.97155Z" fill="#FF842F"/>
<path d="M41.7922 11.7293C41.4354 12.0744 41.0163 12.3487 40.5572 12.5376C40.4973 12.5614 40.4427 12.597 40.3966 12.6421C40.3505 12.6872 40.3138 12.741 40.2886 12.8004C40.2635 12.8597 40.2504 12.9235 40.25 12.988C40.2497 13.0525 40.2621 13.1164 40.2866 13.1761C40.3112 13.2357 40.3473 13.2899 40.3929 13.3355C40.4385 13.3811 40.4927 13.4172 40.5524 13.4417C40.612 13.4662 40.6759 13.4787 40.7404 13.4783C40.8049 13.4779 40.8687 13.4648 40.9281 13.4396C41.5009 13.2041 42.0238 12.8621 42.4691 12.4317C42.5622 12.3419 42.6159 12.2188 42.6183 12.0895C42.6207 11.9602 42.5716 11.8352 42.4819 11.7421C42.3921 11.6489 42.269 11.5953 42.1397 11.5929C42.0104 11.5905 41.8854 11.6395 41.7922 11.7293Z" fill="#FF842F"/>
<path d="M40.8875 10.1793L40.6465 9.43795L41.2771 8.9798C41.4105 8.88289 41.5098 8.74624 41.5608 8.58943C41.6117 8.43262 41.6117 8.2637 41.5608 8.10689C41.5099 7.95007 41.4106 7.81341 41.2772 7.71649C41.1438 7.61957 40.9832 7.56736 40.8183 7.56735H40.0387L39.7979 6.82603C39.7469 6.66924 39.6477 6.5326 39.5143 6.43571C39.3809 6.33881 39.2202 6.28662 39.0554 6.28662C38.8905 6.28662 38.7299 6.33881 38.5965 6.43571C38.4631 6.5326 38.3638 6.66924 38.3128 6.82603L38.072 7.56735H37.2925C37.1276 7.56736 36.9669 7.61956 36.8336 7.71648C36.7002 7.8134 36.6009 7.95006 36.5499 8.10687C36.499 8.26369 36.499 8.4326 36.5499 8.58942C36.6009 8.74623 36.7002 8.88289 36.8336 8.9798L37.4642 9.43795L37.2233 10.1793C37.1721 10.3361 37.172 10.5051 37.2229 10.6621C37.2737 10.819 37.3731 10.9558 37.5065 11.0527C37.64 11.1497 37.8008 11.2019 37.9657 11.2018C38.1307 11.2017 38.2914 11.1493 38.4248 11.0521L39.0554 10.594L39.6859 11.0521C39.8193 11.149 39.98 11.2012 40.1448 11.2012C40.3097 11.2012 40.4704 11.149 40.6038 11.0521C40.7371 10.9552 40.8364 10.8186 40.8874 10.6618C40.9383 10.505 40.9384 10.3361 40.8874 10.1793H40.8875ZM40.0735 8.76921C39.9399 8.86592 39.8405 9.00255 39.7895 9.15942C39.7385 9.31628 39.7387 9.48529 39.7899 9.64207L39.9603 10.1663L39.5143 9.8425C39.3811 9.74528 39.2204 9.69288 39.0554 9.69286C38.8905 9.69285 38.7298 9.74521 38.5965 9.8424L38.1506 10.1663L38.3208 9.64219C38.3721 9.48541 38.3723 9.3164 38.3213 9.15951C38.2703 9.00263 38.1709 8.86598 38.0373 8.76926L37.5912 8.44521H38.1425C38.3074 8.44551 38.4682 8.39344 38.6017 8.29651C38.7351 8.19958 38.8343 8.06279 38.8851 7.90585L39.0554 7.38151L39.2258 7.90594C39.2765 8.06286 39.3757 8.19963 39.5092 8.29655C39.6426 8.39347 39.8033 8.44553 39.9682 8.44524H40.5196L40.0735 8.76921Z" fill="#FF842F"/>
</svg>
