<svg width="42" height="42" viewBox="0 0 42 42" fill="none" xmlns="http://www.w3.org/2000/svg">
<path d="M21.0001 0C9.42057 0 0 9.42052 0 20.9999C0 32.5794 9.42057 41.9999 21.0001 41.9999C32.5794 41.9999 42 32.5794 42 20.9999C42 9.42052 32.5794 0 21.0001 0ZM21.0001 40.4401C10.2807 40.4401 1.55983 31.7193 1.55983 20.9999C1.55983 10.2806 10.2807 1.55983 21.0001 1.55983C31.7193 1.55983 40.4402 10.2806 40.4402 20.9999C40.4402 31.7193 31.7193 40.4401 21.0001 40.4401Z" fill="#FF842F"/>
<path d="M29.1707 26.0709L21.78 20.6065V9.04408C21.78 8.61332 21.4309 8.26416 21.0001 8.26416C20.5694 8.26416 20.2202 8.61332 20.2202 9.04408V20.9998C20.2202 21.2472 20.3375 21.4799 20.5365 21.6269L28.2435 27.3251C28.3829 27.4283 28.5454 27.478 28.7065 27.478C28.9454 27.478 29.1813 27.3686 29.3343 27.1617C29.5903 26.8154 29.5172 26.327 29.1707 26.0709Z" fill="#FF842F"/>
</svg>
