<svg width="31" height="33" viewBox="0 0 31 33" fill="none" xmlns="http://www.w3.org/2000/svg">
<rect width="30.3293" height="33" rx="2" fill="#F3967C"/>
<path d="M5.40298 11.0681C4.90391 11.0681 4.45668 10.987 4.06131 10.825C3.66594 10.663 3.34835 10.4231 3.10853 10.1056C2.8752 9.78796 2.75205 9.40556 2.73909 8.95833H4.50853C4.53446 9.21111 4.62196 9.40556 4.77103 9.54167C4.92011 9.6713 5.11455 9.73611 5.35437 9.73611C5.60066 9.73611 5.79511 9.68102 5.9377 9.57083C6.08029 9.45417 6.15159 9.29537 6.15159 9.09444C6.15159 8.92593 6.09326 8.78657 5.97659 8.67639C5.86641 8.5662 5.72705 8.47546 5.55853 8.40417C5.3965 8.33287 5.16316 8.25185 4.85853 8.16111C4.41779 8.025 4.05807 7.88889 3.77937 7.75278C3.50066 7.61667 3.26085 7.41574 3.05992 7.15C2.859 6.88426 2.75853 6.5375 2.75853 6.10972C2.75853 5.47454 2.98863 4.9787 3.44881 4.62222C3.909 4.25926 4.50853 4.07778 5.24742 4.07778C5.99928 4.07778 6.60529 4.25926 7.06548 4.62222C7.52566 4.9787 7.77196 5.47778 7.80437 6.11944H6.00576C5.99279 5.89907 5.91178 5.72732 5.7627 5.60417C5.61363 5.47454 5.42242 5.40972 5.18909 5.40972C4.98816 5.40972 4.82613 5.46481 4.70298 5.575C4.57983 5.6787 4.51826 5.83102 4.51826 6.03194C4.51826 6.25231 4.62196 6.42407 4.82937 6.54722C5.03678 6.67037 5.36085 6.80324 5.80159 6.94583C6.24233 7.09491 6.59881 7.2375 6.87103 7.37361C7.14974 7.50972 7.38955 7.70741 7.59048 7.96667C7.79141 8.22593 7.89187 8.55972 7.89187 8.96806C7.89187 9.35694 7.79141 9.71019 7.59048 10.0278C7.39603 10.3454 7.11085 10.5981 6.73492 10.7861C6.359 10.9741 5.91502 11.0681 5.40298 11.0681ZM8.58442 8.27778C8.58442 7.72037 8.68813 7.23102 8.89554 6.80972C9.10942 6.38843 9.39785 6.06435 9.76081 5.8375C10.1238 5.61065 10.5289 5.49722 10.9761 5.49722C11.3585 5.49722 11.6923 5.575 11.9775 5.73056C12.2691 5.88611 12.4928 6.09028 12.6483 6.34306V5.575H14.3108V11H12.6483V10.2319C12.4863 10.4847 12.2594 10.6889 11.9678 10.8444C11.6826 11 11.3488 11.0778 10.9664 11.0778C10.5256 11.0778 10.1238 10.9644 9.76081 10.7375C9.39785 10.5042 9.10942 10.1769 8.89554 9.75556C8.68813 9.32778 8.58442 8.83519 8.58442 8.27778ZM12.6483 8.2875C12.6483 7.87269 12.5316 7.54537 12.2983 7.30556C12.0715 7.06574 11.7928 6.94583 11.4622 6.94583C11.1316 6.94583 10.8497 7.06574 10.6164 7.30556C10.3895 7.53889 10.2761 7.86296 10.2761 8.27778C10.2761 8.69259 10.3895 9.02315 10.6164 9.26944C10.8497 9.50926 11.1316 9.62917 11.4622 9.62917C11.7928 9.62917 12.0715 9.50926 12.2983 9.26944C12.5316 9.02963 12.6483 8.70231 12.6483 8.2875ZM17.9538 9.44444L19.1302 5.575H20.8997L18.9747 11H16.9233L14.9983 5.575H16.7774L17.9538 9.44444ZM26.7133 8.2C26.7133 8.35556 26.7036 8.51759 26.6842 8.68611H22.9217C22.9476 9.02315 23.0545 9.28241 23.2425 9.46389C23.4369 9.63889 23.6735 9.72639 23.9522 9.72639C24.367 9.72639 24.6555 9.55139 24.8175 9.20139H26.5869C26.4962 9.55787 26.3309 9.8787 26.0911 10.1639C25.8578 10.4491 25.5629 10.6727 25.2064 10.8347C24.8499 10.9968 24.4513 11.0778 24.0106 11.0778C23.4791 11.0778 23.0059 10.9644 22.5911 10.7375C22.1763 10.5106 21.8522 10.1866 21.6189 9.76528C21.3856 9.34398 21.2689 8.85139 21.2689 8.2875C21.2689 7.72361 21.3823 7.23102 21.6092 6.80972C21.8425 6.38843 22.1666 6.06435 22.5814 5.8375C22.9962 5.61065 23.4726 5.49722 24.0106 5.49722C24.5356 5.49722 25.0022 5.60741 25.4106 5.82778C25.8189 6.04815 26.1365 6.3625 26.3633 6.77083C26.5967 7.17917 26.7133 7.65556 26.7133 8.2ZM25.0119 7.7625C25.0119 7.47732 24.9147 7.25046 24.7203 7.08194C24.5258 6.91343 24.2828 6.82917 23.9911 6.82917C23.7124 6.82917 23.4758 6.91019 23.2814 7.07222C23.0934 7.23426 22.9768 7.46435 22.9314 7.7625H25.0119ZM3.60427 22.148V20.24H6.92827V29H4.79227V22.148H3.60427ZM14.5 22.028H10.756V23.684C10.916 23.508 11.14 23.364 11.428 23.252C11.716 23.14 12.028 23.084 12.364 23.084C12.964 23.084 13.46 23.22 13.852 23.492C14.252 23.764 14.544 24.116 14.728 24.548C14.912 24.98 15.004 25.448 15.004 25.952C15.004 26.888 14.74 27.632 14.212 28.184C13.684 28.728 12.94 29 11.98 29C11.34 29 10.784 28.892 10.312 28.676C9.83999 28.452 9.47599 28.144 9.21999 27.752C8.96399 27.36 8.82399 26.908 8.79999 26.396H10.804C10.852 26.644 10.968 26.852 11.152 27.02C11.336 27.18 11.588 27.26 11.908 27.26C12.284 27.26 12.564 27.14 12.748 26.9C12.932 26.66 13.024 26.34 13.024 25.94C13.024 25.548 12.928 25.248 12.736 25.04C12.544 24.832 12.264 24.728 11.896 24.728C11.624 24.728 11.4 24.796 11.224 24.932C11.048 25.06 10.932 25.232 10.876 25.448H8.89599V20.228H14.5V22.028ZM15.9687 22.448C15.9687 21.8 16.1527 21.3 16.5207 20.948C16.8967 20.596 17.3807 20.42 17.9727 20.42C18.5647 20.42 19.0447 20.596 19.4127 20.948C19.7807 21.3 19.9647 21.8 19.9647 22.448C19.9647 23.096 19.7807 23.596 19.4127 23.948C19.0447 24.3 18.5647 24.476 17.9727 24.476C17.3807 24.476 16.8967 24.3 16.5207 23.948C16.1527 23.596 15.9687 23.096 15.9687 22.448ZM24.1167 20.552L19.4967 29H17.5167L22.1367 20.552H24.1167ZM17.9607 21.62C17.5767 21.62 17.3847 21.896 17.3847 22.448C17.3847 22.992 17.5767 23.264 17.9607 23.264C18.1447 23.264 18.2887 23.196 18.3927 23.06C18.4967 22.924 18.5487 22.72 18.5487 22.448C18.5487 21.896 18.3527 21.62 17.9607 21.62ZM21.6807 27.104C21.6807 26.456 21.8647 25.956 22.2327 25.604C22.6007 25.252 23.0807 25.076 23.6727 25.076C24.2647 25.076 24.7447 25.252 25.1127 25.604C25.4807 25.956 25.6647 26.456 25.6647 27.104C25.6647 27.752 25.4807 28.252 25.1127 28.604C24.7447 28.956 24.2647 29.132 23.6727 29.132C23.0807 29.132 22.6007 28.956 22.2327 28.604C21.8647 28.252 21.6807 27.752 21.6807 27.104ZM23.6607 26.276C23.4767 26.276 23.3327 26.344 23.2287 26.48C23.1327 26.616 23.0847 26.824 23.0847 27.104C23.0847 27.648 23.2767 27.92 23.6607 27.92C23.8447 27.92 23.9887 27.852 24.0927 27.716C24.1967 27.58 24.2487 27.376 24.2487 27.104C24.2487 26.832 24.1967 26.628 24.0927 26.492C23.9887 26.348 23.8447 26.276 23.6607 26.276Z" fill="white"/>
</svg>
