<svg width="31" height="33" viewBox="0 0 31 33" fill="none" xmlns="http://www.w3.org/2000/svg">
<rect width="30.3293" height="33" rx="2" fill="white"/>
<path d="M5.40298 11.0681C4.90391 11.0681 4.45668 10.987 4.06131 10.825C3.66594 10.663 3.34835 10.4231 3.10853 10.1056C2.8752 9.78796 2.75205 9.40556 2.73909 8.95833H4.50853C4.53446 9.21111 4.62196 9.40556 4.77103 9.54167C4.92011 9.6713 5.11455 9.73611 5.35437 9.73611C5.60066 9.73611 5.79511 9.68102 5.9377 9.57083C6.08029 9.45417 6.15159 9.29537 6.15159 9.09444C6.15159 8.92593 6.09326 8.78657 5.97659 8.67639C5.86641 8.5662 5.72705 8.47546 5.55853 8.40417C5.3965 8.33287 5.16316 8.25185 4.85853 8.16111C4.41779 8.025 4.05807 7.88889 3.77937 7.75278C3.50066 7.61667 3.26085 7.41574 3.05992 7.15C2.859 6.88426 2.75853 6.5375 2.75853 6.10972C2.75853 5.47454 2.98863 4.9787 3.44881 4.62222C3.909 4.25926 4.50853 4.07778 5.24742 4.07778C5.99928 4.07778 6.60529 4.25926 7.06548 4.62222C7.52566 4.9787 7.77196 5.47778 7.80437 6.11944H6.00576C5.99279 5.89907 5.91178 5.72732 5.7627 5.60417C5.61363 5.47454 5.42242 5.40972 5.18909 5.40972C4.98816 5.40972 4.82613 5.46481 4.70298 5.575C4.57983 5.6787 4.51826 5.83102 4.51826 6.03194C4.51826 6.25231 4.62196 6.42407 4.82937 6.54722C5.03678 6.67037 5.36085 6.80324 5.80159 6.94583C6.24233 7.09491 6.59881 7.2375 6.87103 7.37361C7.14974 7.50972 7.38955 7.70741 7.59048 7.96667C7.79141 8.22593 7.89187 8.55972 7.89187 8.96806C7.89187 9.35694 7.79141 9.71019 7.59048 10.0278C7.39603 10.3454 7.11085 10.5981 6.73492 10.7861C6.359 10.9741 5.91502 11.0681 5.40298 11.0681ZM8.58442 8.27778C8.58442 7.72037 8.68813 7.23102 8.89554 6.80972C9.10942 6.38843 9.39785 6.06435 9.76081 5.8375C10.1238 5.61065 10.5289 5.49722 10.9761 5.49722C11.3585 5.49722 11.6923 5.575 11.9775 5.73056C12.2691 5.88611 12.4928 6.09028 12.6483 6.34306V5.575H14.3108V11H12.6483V10.2319C12.4863 10.4847 12.2594 10.6889 11.9678 10.8444C11.6826 11 11.3488 11.0778 10.9664 11.0778C10.5256 11.0778 10.1238 10.9644 9.76081 10.7375C9.39785 10.5042 9.10942 10.1769 8.89554 9.75556C8.68813 9.32778 8.58442 8.83519 8.58442 8.27778ZM12.6483 8.2875C12.6483 7.87269 12.5316 7.54537 12.2983 7.30556C12.0715 7.06574 11.7928 6.94583 11.4622 6.94583C11.1316 6.94583 10.8497 7.06574 10.6164 7.30556C10.3895 7.53889 10.2761 7.86296 10.2761 8.27778C10.2761 8.69259 10.3895 9.02315 10.6164 9.26944C10.8497 9.50926 11.1316 9.62917 11.4622 9.62917C11.7928 9.62917 12.0715 9.50926 12.2983 9.26944C12.5316 9.02963 12.6483 8.70231 12.6483 8.2875ZM17.9538 9.44444L19.1302 5.575H20.8997L18.9747 11H16.9233L14.9983 5.575H16.7774L17.9538 9.44444ZM26.7133 8.2C26.7133 8.35556 26.7036 8.51759 26.6842 8.68611H22.9217C22.9476 9.02315 23.0545 9.28241 23.2425 9.46389C23.4369 9.63889 23.6735 9.72639 23.9522 9.72639C24.367 9.72639 24.6555 9.55139 24.8175 9.20139H26.5869C26.4962 9.55787 26.3309 9.8787 26.0911 10.1639C25.8578 10.4491 25.5629 10.6727 25.2064 10.8347C24.8499 10.9968 24.4513 11.0778 24.0106 11.0778C23.4791 11.0778 23.0059 10.9644 22.5911 10.7375C22.1763 10.5106 21.8522 10.1866 21.6189 9.76528C21.3856 9.34398 21.2689 8.85139 21.2689 8.2875C21.2689 7.72361 21.3823 7.23102 21.6092 6.80972C21.8425 6.38843 22.1666 6.06435 22.5814 5.8375C22.9962 5.61065 23.4726 5.49722 24.0106 5.49722C24.5356 5.49722 25.0022 5.60741 25.4106 5.82778C25.8189 6.04815 26.1365 6.3625 26.3633 6.77083C26.5967 7.17917 26.7133 7.65556 26.7133 8.2ZM25.0119 7.7625C25.0119 7.47732 24.9147 7.25046 24.7203 7.08194C24.5258 6.91343 24.2828 6.82917 23.9911 6.82917C23.7124 6.82917 23.4758 6.91019 23.2814 7.07222C23.0934 7.23426 22.9768 7.46435 22.9314 7.7625H25.0119ZM12.2441 22.028H8.50013V23.684C8.66013 23.508 8.88413 23.364 9.17213 23.252C9.46013 23.14 9.77213 23.084 10.1081 23.084C10.7081 23.084 11.2041 23.22 11.5961 23.492C11.9961 23.764 12.2881 24.116 12.4721 24.548C12.6561 24.98 12.7481 25.448 12.7481 25.952C12.7481 26.888 12.4841 27.632 11.9561 28.184C11.4281 28.728 10.6841 29 9.72413 29C9.08413 29 8.52813 28.892 8.05613 28.676C7.58413 28.452 7.22013 28.144 6.96413 27.752C6.70813 27.36 6.56813 26.908 6.54413 26.396H8.54813C8.59613 26.644 8.71213 26.852 8.89613 27.02C9.08013 27.18 9.33213 27.26 9.65213 27.26C10.0281 27.26 10.3081 27.14 10.4921 26.9C10.6761 26.66 10.7681 26.34 10.7681 25.94C10.7681 25.548 10.6721 25.248 10.4801 25.04C10.2881 24.832 10.0081 24.728 9.64013 24.728C9.36813 24.728 9.14413 24.796 8.96813 24.932C8.79213 25.06 8.67613 25.232 8.62013 25.448H6.64013V20.228H12.2441V22.028ZM13.7128 22.448C13.7128 21.8 13.8968 21.3 14.2648 20.948C14.6408 20.596 15.1248 20.42 15.7168 20.42C16.3088 20.42 16.7888 20.596 17.1568 20.948C17.5248 21.3 17.7088 21.8 17.7088 22.448C17.7088 23.096 17.5248 23.596 17.1568 23.948C16.7888 24.3 16.3088 24.476 15.7168 24.476C15.1248 24.476 14.6408 24.3 14.2648 23.948C13.8968 23.596 13.7128 23.096 13.7128 22.448ZM21.8608 20.552L17.2408 29H15.2608L19.8808 20.552H21.8608ZM15.7048 21.62C15.3208 21.62 15.1288 21.896 15.1288 22.448C15.1288 22.992 15.3208 23.264 15.7048 23.264C15.8888 23.264 16.0328 23.196 16.1368 23.06C16.2408 22.924 16.2928 22.72 16.2928 22.448C16.2928 21.896 16.0968 21.62 15.7048 21.62ZM19.4248 27.104C19.4248 26.456 19.6088 25.956 19.9768 25.604C20.3448 25.252 20.8248 25.076 21.4168 25.076C22.0088 25.076 22.4888 25.252 22.8568 25.604C23.2248 25.956 23.4088 26.456 23.4088 27.104C23.4088 27.752 23.2248 28.252 22.8568 28.604C22.4888 28.956 22.0088 29.132 21.4168 29.132C20.8248 29.132 20.3448 28.956 19.9768 28.604C19.6088 28.252 19.4248 27.752 19.4248 27.104ZM21.4048 26.276C21.2208 26.276 21.0768 26.344 20.9728 26.48C20.8768 26.616 20.8288 26.824 20.8288 27.104C20.8288 27.648 21.0208 27.92 21.4048 27.92C21.5888 27.92 21.7328 27.852 21.8368 27.716C21.9408 27.58 21.9928 27.376 21.9928 27.104C21.9928 26.832 21.9408 26.628 21.8368 26.492C21.7328 26.348 21.5888 26.276 21.4048 26.276Z" fill="#F3967C"/>
</svg>
