<svg width="11" height="14" viewBox="0 0 11 14" fill="none" xmlns="http://www.w3.org/2000/svg">
<path d="M5.11833 0C2.27978 0 0 2.30213 0 5.11833C0 7.93454 5.11833 13.4105 5.11833 13.4105C5.11833 13.4105 10.2367 7.95689 10.2367 5.11833C10.2367 2.27978 7.95689 0 5.11833 0ZM5.11833 12.74C4.64897 12.2259 3.77729 11.2201 2.9056 10.0355C1.29635 7.86748 0.447016 6.16882 0.447016 5.09598C0.447016 2.52564 2.54799 0.424665 5.11833 0.424665C7.68868 0.424665 9.78965 2.54799 9.78965 5.11833C9.78965 6.16882 8.94032 7.88983 7.33106 10.0579C6.45938 11.2201 5.5877 12.2259 5.11833 12.74Z" fill="#5A5A5A"/>
<path d="M5.11799 2.4585C3.77694 2.4585 2.7041 3.53134 2.7041 4.87238C2.7041 6.21343 3.77694 7.28627 5.11799 7.28627C6.45904 7.28627 7.53187 6.21343 7.53187 4.87238C7.53187 3.55369 6.45904 2.4585 5.11799 2.4585ZM6.50374 6.28048C6.14612 6.6381 5.65441 6.8616 5.11799 6.8616C4.58157 6.8616 4.08985 6.6381 3.73224 6.28048C3.37463 5.92287 3.15112 5.43115 3.15112 4.89473C3.15112 4.35831 3.37463 3.8666 3.73224 3.50898C4.08985 3.15137 4.58157 2.92786 5.11799 2.92786C5.65441 2.92786 6.14612 3.15137 6.50374 3.50898C6.86135 3.8666 7.08486 4.35831 7.08486 4.89473C7.08486 5.43115 6.86135 5.92287 6.50374 6.28048Z" fill="#5A5A5A"/>
</svg>
