<svg width="15" height="15" viewBox="0 0 15 15" fill="none" xmlns="http://www.w3.org/2000/svg">
<path d="M9.54 0.75C10.89 0.75 11.565 0.75 12.3 0.975C13.095 1.26 13.725 1.89 14.01 2.685C14.25 3.435 14.25 4.11 14.25 5.46V9.54C14.25 10.89 14.25 11.565 14.025 12.3C13.74 13.095 13.11 13.725 12.315 14.01C11.58 14.25 10.905 14.25 9.54 14.25H5.46C4.11 14.25 3.435 14.25 2.7 14.025C1.905 13.725 1.275 13.11 0.99 12.3C0.75 11.58 0.75 10.905 0.75 9.54V5.46C0.75 4.11 0.75 3.435 0.975 2.7C1.275 1.905 1.905 1.275 2.7 0.99C3.435 0.75 4.11 0.75 5.46 0.75H9.54Z" fill="#3E8FC1"/>
<path d="M3.85504 6.64488C3.36004 5.74488 3.16504 5.00988 3.16504 4.51488C3.16504 4.01988 3.28504 3.88488 3.40504 3.76488C3.52504 3.64488 4.08004 3.31488 4.18504 3.23988C4.27504 3.17988 4.63504 3.04488 4.86004 3.37488C5.08504 3.70488 5.50504 4.34988 5.80504 4.78488C6.27004 5.39988 5.89504 5.66988 5.77504 5.83488C5.55004 6.13488 5.43004 6.20988 5.43004 6.56988C5.43004 6.92988 6.45004 7.97989 6.69004 8.23489C6.93004 8.48989 7.95004 9.37489 8.26504 9.43489C8.58004 9.47989 9.01504 9.14989 9.10504 9.05989C9.57004 8.69989 9.82504 8.96988 10.035 9.08989C10.245 9.20989 11.205 9.80989 11.505 10.0049C11.79 10.1999 11.76 10.5149 11.76 10.5149C11.76 10.5149 11.565 11.0999 11.115 11.5349C11.01 11.6399 10.815 11.7749 10.35 11.7749C9.88504 11.7749 9.37504 11.6849 8.17504 11.0249C7.20004 10.4849 6.27004 9.64489 5.77504 9.14989C5.28004 8.66989 4.42504 7.67988 3.85504 6.64488Z" fill="white"/>
</svg>
