<svg width="75" height="14" viewBox="0 0 75 14" fill="none" xmlns="http://www.w3.org/2000/svg">
<path d="M6.05318 1.46556C6.43982 0.808181 7.39048 0.808181 7.77712 1.46556L8.88117 3.34274C9.02668 3.59014 9.27149 3.7631 9.55329 3.81759L11.6886 4.23048C12.4664 4.38087 12.7688 5.33287 12.2204 5.90455L10.7944 7.39108C10.5869 7.60742 10.4874 7.90545 10.5233 8.20307L10.77 10.2493C10.8627 11.0178 10.0845 11.5957 9.37556 11.2848L7.31682 10.3818C7.06081 10.2695 6.76949 10.2695 6.51348 10.3818L4.45474 11.2848C3.74579 11.5957 2.96757 11.0178 3.06026 10.2493L3.30703 8.20307C3.34292 7.90545 3.24339 7.60742 3.03587 7.39108L1.60988 5.90455C1.06147 5.33287 1.36389 4.38087 2.14168 4.23048L4.27701 3.81759C4.55881 3.7631 4.80361 3.59014 4.94913 3.34274L6.05318 1.46556Z" fill="#F69A5B"/>
<path d="M21.1479 1.46556C21.5345 0.808181 22.4852 0.808181 22.8718 1.46556L23.9759 3.34274C24.1214 3.59014 24.3662 3.7631 24.648 3.81759L26.7833 4.23048C27.5611 4.38087 27.8636 5.33287 27.3151 5.90455L25.8892 7.39108C25.6816 7.60742 25.5821 7.90545 25.618 8.20307L25.8648 10.2493C25.9574 11.0178 25.1792 11.5957 24.4703 11.2848L22.4115 10.3818C22.1555 10.2695 21.8642 10.2695 21.6082 10.3818L19.5495 11.2848C18.8405 11.5957 18.0623 11.0178 18.155 10.2493L18.4018 8.20307C18.4376 7.90545 18.3381 7.60742 18.1306 7.39108L16.7046 5.90455C16.1562 5.33287 16.4586 4.38087 17.2364 4.23048L19.3717 3.81759C19.6535 3.7631 19.8983 3.59014 20.0439 3.34274L21.1479 1.46556Z" fill="#F69A5B"/>
<path d="M36.2426 1.46556C36.6293 0.808181 37.5799 0.808181 37.9666 1.46556L39.0706 3.34274C39.2161 3.59014 39.4609 3.7631 39.7427 3.81759L41.8781 4.23048C42.6559 4.38087 42.9583 5.33287 42.4099 5.90455L40.9839 7.39108C40.7764 7.60742 40.6768 7.90545 40.7127 8.20307L40.9595 10.2493C41.0522 11.0178 40.274 11.5957 39.565 11.2848L37.5063 10.3818C37.2503 10.2695 36.9589 10.2695 36.7029 10.3818L34.6442 11.2848C33.9352 11.5957 33.157 11.0178 33.2497 10.2493L33.4965 8.20307C33.5324 7.90545 33.4328 7.60742 33.2253 7.39108L31.7993 5.90455C31.2509 5.33287 31.5533 4.38087 32.3311 4.23048L34.4665 3.81759C34.7483 3.7631 34.9931 3.59014 35.1386 3.34274L36.2426 1.46556Z" fill="#F69A5B"/>
<path d="M51.3374 1.46556C51.724 0.808181 52.6747 0.808181 53.0613 1.46556L54.1654 3.34274C54.3109 3.59014 54.5557 3.7631 54.8375 3.81759L56.9728 4.23048C57.7506 4.38087 58.053 5.33287 57.5046 5.90455L56.0786 7.39108C55.8711 7.60742 55.7716 7.90545 55.8075 8.20307L56.0542 10.2493C56.1469 11.0178 55.3687 11.5957 54.6597 11.2848L52.601 10.3818C52.345 10.2695 52.0537 10.2695 51.7977 10.3818L49.7389 11.2848C49.03 11.5957 48.2518 11.0178 48.3444 10.2493L48.5912 8.20307C48.6271 7.90545 48.5276 7.60742 48.32 7.39108L46.8941 5.90455C46.3457 5.33287 46.6481 4.38087 47.4259 4.23048L49.5612 3.81759C49.843 3.7631 50.0878 3.59014 50.2333 3.34274L51.3374 1.46556Z" fill="#F69A5B"/>
<path d="M66.4331 1.46556C66.8197 0.808181 67.7704 0.808181 68.157 1.46556L69.2611 3.34274C69.4066 3.59014 69.6514 3.7631 69.9332 3.81759L72.0685 4.23048C72.8463 4.38087 73.1487 5.33287 72.6003 5.90455L71.1743 7.39108C70.9668 7.60742 70.8673 7.90545 70.9032 8.20307L71.1499 10.2493C71.2426 11.0178 70.4644 11.5957 69.7554 11.2848L67.6967 10.3818C67.4407 10.2695 67.1494 10.2695 66.8934 10.3818L64.8346 11.2848C64.1257 11.5957 63.3475 11.0178 63.4401 10.2493L63.6869 8.20307C63.7228 7.90545 63.6233 7.60742 63.4158 7.39108L61.9898 5.90455C61.4414 5.33287 61.7438 4.38087 62.5216 4.23048L64.6569 3.81759C64.9387 3.7631 65.1835 3.59014 65.329 3.34274L66.4331 1.46556Z" fill="#B8B8B8"/>
</svg>
